<svg width="60" height="57" viewBox="0 0 60 57" fill="none" xmlns="http://www.w3.org/2000/svg">
<path d="M18.326 23.0643L9.34714 17.9641L0.356354 23.0643V33.2412L9.34714 38.3297L18.326 33.2412V23.0643ZM16.3926 32.1467L9.34714 36.129L2.3016 32.1467V24.1588L9.34714 20.1649L16.3926 24.1588V32.1467Z" fill="#37392E" fill-opacity="0.5"/>
<path d="M38.6916 23.0527L29.7009 17.9641L20.722 23.0527V33.2296L29.7009 38.3297L38.6916 33.2296V23.0527Z" fill="#37392E" fill-opacity="0.5"/>
<path d="M49.4671 17.9641L39.8896 23.0643V33.2412L49.4671 38.3297L59.0572 33.2412V23.0643L49.4671 17.9641ZM56.9825 32.1467L49.4671 36.129L41.9519 32.1467V24.1588L49.4671 20.1649L56.9825 24.1588V32.1467Z" fill="#37392E" fill-opacity="0.5"/>
<path d="M11.1381 40.136V50.9116L20.1407 56.2994L29.1078 50.9116V40.136L20.1407 34.7358L11.1381 40.136ZM27.1414 49.7897L20.1407 53.9692L13.0334 49.7897V41.2949L20.1407 37.066L27.1651 41.2949L27.1414 49.7897Z" fill="#37392E" fill-opacity="0.5"/>
<path d="M30.3058 40.136V50.9116L39.2846 56.2994L48.2754 50.9116V40.136L39.2846 34.7358L30.3058 40.136ZM46.3302 49.7897L39.2846 54.0062L32.251 49.7897V41.2949L39.2846 37.066L46.3302 41.2949V49.7897Z" fill="#37392E" fill-opacity="0.5"/>
<path d="M29.1078 16.1702V5.35767L20.1526 -0.00549316L11.1381 5.35767V16.1333L20.1526 21.5581L29.1078 16.1702ZM13.0359 6.59058L20.1526 2.32471L27.1626 6.59058V15.0483L20.1526 19.2279L13.0359 15.0113V6.59058Z" fill="#37392E" fill-opacity="0.5"/>
<path d="M48.2754 16.2073V5.39462L39.2846 -0.00549316L30.3058 5.39462V16.1702L39.2846 21.5581L48.2754 16.2073ZM32.251 6.62754L39.2846 2.3987L46.3302 6.62754V15.0853L39.2846 19.3019L32.251 15.0853V6.62754Z" fill="#37392E" fill-opacity="0.5"/>
</svg>
